<svg width="180" height="60" viewBox="0 0 180 60" fill="none" xmlns="http://www.w3.org/2000/svg">
<rect width="180" height="60" rx="30" fill="#39DB4A"/>
<path d="M67.74 30.02C67.74 28.66 68.0533 27.44 68.68 26.36C69.32 25.28 70.18 24.44 71.26 23.84C72.3533 23.2267 73.5467 22.92 74.84 22.92C76.32 22.92 77.6333 23.2867 78.78 24.02C79.94 24.74 80.78 25.7667 81.3 27.1H78.56C78.2 26.3667 77.7 25.82 77.06 25.46C76.42 25.1 75.68 24.92 74.84 24.92C73.92 24.92 73.1 25.1267 72.38 25.54C71.66 25.9533 71.0933 26.5467 70.68 27.32C70.28 28.0933 70.08 28.9933 70.08 30.02C70.08 31.0467 70.28 31.9467 70.68 32.72C71.0933 33.4933 71.66 34.0933 72.38 34.52C73.1 34.9333 73.92 35.14 74.84 35.14C75.68 35.14 76.42 34.96 77.06 34.6C77.7 34.24 78.2 33.6933 78.56 32.96H81.3C80.78 34.2933 79.94 35.32 78.78 36.04C77.6333 36.76 76.32 37.12 74.84 37.12C73.5333 37.12 72.34 36.82 71.26 36.22C70.18 35.6067 69.32 34.76 68.68 33.68C68.0533 32.6 67.74 31.38 67.74 30.02ZM88.7488 37.18C87.7088 37.18 86.7688 36.9467 85.9288 36.48C85.0888 36 84.4288 35.3333 83.9488 34.48C83.4688 33.6133 83.2288 32.6133 83.2288 31.48C83.2288 30.36 83.4754 29.3667 83.9688 28.5C84.4621 27.6333 85.1354 26.9667 85.9888 26.5C86.8421 26.0333 87.7954 25.8 88.8488 25.8C89.9021 25.8 90.8554 26.0333 91.7088 26.5C92.5621 26.9667 93.2354 27.6333 93.7288 28.5C94.2221 29.3667 94.4688 30.36 94.4688 31.48C94.4688 32.6 94.2154 33.5933 93.7088 34.46C93.2021 35.3267 92.5088 36 91.6288 36.48C90.7621 36.9467 89.8021 37.18 88.7488 37.18ZM88.7488 35.2C89.3354 35.2 89.8821 35.06 90.3888 34.78C90.9088 34.5 91.3288 34.08 91.6488 33.52C91.9688 32.96 92.1288 32.28 92.1288 31.48C92.1288 30.68 91.9754 30.0067 91.6688 29.46C91.3621 28.9 90.9554 28.48 90.4488 28.2C89.9421 27.92 89.3954 27.78 88.8088 27.78C88.2221 27.78 87.6754 27.92 87.1688 28.2C86.6754 28.48 86.2821 28.9 85.9888 29.46C85.6954 30.0067 85.5488 30.68 85.5488 31.48C85.5488 32.6667 85.8488 33.5867 86.4488 34.24C87.0621 34.88 87.8288 35.2 88.7488 35.2ZM102.283 25.8C103.149 25.8 103.923 25.98 104.603 26.34C105.296 26.7 105.836 27.2333 106.223 27.94C106.609 28.6467 106.803 29.5 106.803 30.5V37H104.543V30.84C104.543 29.8533 104.296 29.1 103.803 28.58C103.309 28.0467 102.636 27.78 101.783 27.78C100.929 27.78 100.249 28.0467 99.7427 28.58C99.2493 29.1 99.0027 29.8533 99.0027 30.84V37H96.7227V25.98H99.0027V27.24C99.376 26.7867 99.8493 26.4333 100.423 26.18C101.009 25.9267 101.629 25.8 102.283 25.8ZM112.371 27.84V33.94C112.371 34.3533 112.464 34.6533 112.651 34.84C112.851 35.0133 113.184 35.1 113.651 35.1H115.051V37H113.251C112.224 37 111.438 36.76 110.891 36.28C110.344 35.8 110.071 35.02 110.071 33.94V27.84H108.771V25.98H110.071V23.24H112.371V25.98H115.051V27.84H112.371ZM116.392 31.44C116.392 30.3333 116.619 29.3533 117.072 28.5C117.539 27.6467 118.166 26.9867 118.952 26.52C119.752 26.04 120.632 25.8 121.592 25.8C122.459 25.8 123.212 25.9733 123.852 26.32C124.506 26.6533 125.026 27.0733 125.412 27.58V25.98H127.712V37H125.412V35.36C125.026 35.88 124.499 36.3133 123.832 36.66C123.166 37.0067 122.406 37.18 121.552 37.18C120.606 37.18 119.739 36.94 118.952 36.46C118.166 35.9667 117.539 35.2867 117.072 34.42C116.619 33.54 116.392 32.5467 116.392 31.44ZM125.412 31.48C125.412 30.72 125.252 30.06 124.932 29.5C124.626 28.94 124.219 28.5133 123.712 28.22C123.206 27.9267 122.659 27.78 122.072 27.78C121.486 27.78 120.939 27.9267 120.432 28.22C119.926 28.5 119.512 28.92 119.192 29.48C118.886 30.0267 118.732 30.68 118.732 31.44C118.732 32.2 118.886 32.8667 119.192 33.44C119.512 34.0133 119.926 34.4533 120.432 34.76C120.952 35.0533 121.499 35.2 122.072 35.2C122.659 35.2 123.206 35.0533 123.712 34.76C124.219 34.4667 124.626 34.04 124.932 33.48C125.252 32.9067 125.412 32.24 125.412 31.48ZM129.947 31.48C129.947 30.3467 130.174 29.3533 130.627 28.5C131.094 27.6333 131.734 26.9667 132.547 26.5C133.36 26.0333 134.294 25.8 135.347 25.8C136.68 25.8 137.78 26.12 138.647 26.76C139.527 27.3867 140.12 28.2867 140.427 29.46H137.967C137.767 28.9133 137.447 28.4867 137.007 28.18C136.567 27.8733 136.014 27.72 135.347 27.72C134.414 27.72 133.667 28.0533 133.107 28.72C132.56 29.3733 132.287 30.2933 132.287 31.48C132.287 32.6667 132.56 33.5933 133.107 34.26C133.667 34.9267 134.414 35.26 135.347 35.26C136.667 35.26 137.54 34.68 137.967 33.52H140.427C140.107 34.64 139.507 35.5333 138.627 36.2C137.747 36.8533 136.654 37.18 135.347 37.18C134.294 37.18 133.36 36.9467 132.547 36.48C131.734 36 131.094 35.3333 130.627 34.48C130.174 33.6133 129.947 32.6133 129.947 31.48ZM145.359 27.84V33.94C145.359 34.3533 145.453 34.6533 145.639 34.84C145.839 35.0133 146.173 35.1 146.639 35.1H148.039V37H146.239C145.213 37 144.426 36.76 143.879 36.28C143.333 35.8 143.059 35.02 143.059 33.94V27.84H141.759V25.98H143.059V23.24H145.359V25.98H148.039V27.84H145.359Z" fill="white"/>
<g clip-path="url(#clip0_82_90)">
<path d="M39.9999 22.0001C39.9999 21.7349 40.1053 21.4806 40.2928 21.293C40.4803 21.1055 40.7347 21.0001 40.9999 21.0001C43.6512 21.003 46.193 22.0575 48.0678 23.9323C49.9425 25.807 50.997 28.3489 50.9999 31.0001C50.9999 31.2654 50.8945 31.5197 50.707 31.7072C50.5195 31.8948 50.2651 32.0001 49.9999 32.0001C49.7347 32.0001 49.4803 31.8948 49.2928 31.7072C49.1053 31.5197 48.9999 31.2654 48.9999 31.0001C48.9975 28.8791 48.1539 26.8457 46.6541 25.3459C45.1544 23.8461 43.1209 23.0025 40.9999 23.0001C40.7347 23.0001 40.4803 22.8948 40.2928 22.7072C40.1053 22.5197 39.9999 22.2653 39.9999 22.0001ZM40.9999 27.0001C42.0608 27.0001 43.0782 27.4216 43.8283 28.1717C44.5785 28.9219 44.9999 29.9393 44.9999 31.0001C44.9999 31.2654 45.1053 31.5197 45.2928 31.7072C45.4803 31.8948 45.7347 32.0001 45.9999 32.0001C46.2651 32.0001 46.5195 31.8948 46.707 31.7072C46.8945 31.5197 46.9999 31.2654 46.9999 31.0001C46.9983 29.4093 46.3657 27.8841 45.2408 26.7592C44.1159 25.6344 42.5907 25.0017 40.9999 25.0001C40.7347 25.0001 40.4803 25.1055 40.2928 25.293C40.1053 25.4806 39.9999 25.7349 39.9999 26.0001C39.9999 26.2653 40.1053 26.5197 40.2928 26.7072C40.4803 26.8948 40.7347 27.0001 40.9999 27.0001ZM50.0929 37.7391C50.6724 38.3202 50.9978 39.1074 50.9978 39.9281C50.9978 40.7488 50.6724 41.536 50.0929 42.1171L49.1829 43.1661C40.9929 51.0071 21.0629 31.0821 28.7829 22.8661L29.9329 21.8661C30.5147 21.3028 31.2949 20.9912 32.1046 20.9987C32.9144 21.0062 33.6887 21.3322 34.2599 21.9061C34.2909 21.9371 36.1439 24.3441 36.1439 24.3441C36.6937 24.9218 36.9998 25.6891 36.9985 26.4865C36.9972 27.284 36.6886 28.0503 36.1369 28.6261L34.9789 30.0821C35.6198 31.6392 36.562 33.0544 37.7514 34.2462C38.9409 35.4381 40.3541 36.3831 41.9099 37.0271L43.3749 35.8621C43.9508 35.3108 44.717 35.0026 45.5142 35.0015C46.3114 35.0004 47.0785 35.3065 47.6559 35.8561C47.6559 35.8561 50.0619 37.7081 50.0929 37.7391ZM48.7169 39.1931C48.7169 39.1931 46.3239 37.3521 46.2929 37.3211C46.0869 37.1169 45.8085 37.0023 45.5184 37.0023C45.2283 37.0023 44.9499 37.1169 44.7439 37.3211C44.7169 37.3491 42.6999 38.9561 42.6999 38.9561C42.564 39.0643 42.4022 39.1352 42.2306 39.1619C42.0589 39.1885 41.8832 39.17 41.7209 39.1081C39.7054 38.3577 37.8746 37.1829 36.3527 35.6632C34.8308 34.1436 33.6533 32.3146 32.8999 30.3001C32.8331 30.1356 32.8113 29.9562 32.8368 29.7805C32.8623 29.6047 32.9341 29.4389 33.0449 29.3001C33.0449 29.3001 34.6519 27.2821 34.6789 27.2561C34.8832 27.0501 34.9978 26.7717 34.9978 26.4816C34.9978 26.1915 34.8832 25.9131 34.6789 25.7071C34.6479 25.6771 32.8069 23.2821 32.8069 23.2821C32.5978 23.0946 32.3249 22.9942 32.0442 23.0015C31.7634 23.0087 31.4961 23.1231 31.2969 23.3211L30.1469 24.3211C24.5049 31.1051 41.7759 47.4181 47.7209 41.8001L48.6319 40.7501C48.8454 40.5524 48.9736 40.2794 48.9895 39.9888C49.0053 39.6983 48.9076 39.4129 48.7169 39.1931Z" fill="white"/>
</g>
<defs>
<clipPath id="clip0_82_90">
<rect width="24" height="24" fill="white" transform="translate(27 21)"/>
</clipPath>
</defs>
</svg>
