<svg width="329" height="180" viewBox="0 0 329 180" fill="none" xmlns="http://www.w3.org/2000/svg">
<g filter="url(#filter0_d_36_255)">
<rect x="52" y="40" width="229" height="80" rx="40" fill="#39DB4A"/>
</g>
<path d="M120.865 89V70.0909H133.163V72.9624H124.29V78.0959H132.526V80.9673H124.29V86.1286H133.237V89H120.865ZM139.243 74.8182L142.105 80.0533L145.014 74.8182H148.55L144.275 81.9091L148.624 89H145.106L142.105 83.8942L139.132 89H135.587L139.908 81.9091L135.698 74.8182H139.243ZM151.135 94.3182V74.8182H154.422V77.1634H154.616C154.788 76.8187 155.032 76.4524 155.346 76.0646C155.659 75.6707 156.084 75.3352 156.62 75.0582C157.155 74.7751 157.838 74.6335 158.669 74.6335C159.765 74.6335 160.753 74.9136 161.633 75.4737C162.52 76.0277 163.221 76.8494 163.738 77.9389C164.261 79.0223 164.523 80.3518 164.523 81.9276C164.523 83.4848 164.268 84.8082 163.757 85.8977C163.246 86.9872 162.55 87.8182 161.67 88.3906C160.79 88.9631 159.793 89.2493 158.679 89.2493C157.866 89.2493 157.192 89.1139 156.657 88.843C156.121 88.5722 155.69 88.246 155.364 87.8643C155.044 87.4766 154.795 87.1103 154.616 86.7656H154.478V94.3182H151.135ZM154.413 81.9091C154.413 82.8262 154.542 83.6295 154.801 84.3189C155.065 85.0083 155.444 85.5469 155.936 85.9347C156.435 86.3163 157.038 86.5071 157.746 86.5071C158.485 86.5071 159.103 86.3101 159.602 85.9162C160.1 85.5161 160.476 84.9714 160.728 84.282C160.987 83.5864 161.116 82.7955 161.116 81.9091C161.116 81.0289 160.99 80.2472 160.738 79.5639C160.485 78.8807 160.11 78.3452 159.611 77.9574C159.113 77.5696 158.491 77.3757 157.746 77.3757C157.032 77.3757 156.426 77.5634 155.927 77.9389C155.429 78.3144 155.05 78.8407 154.792 79.5178C154.539 80.1948 154.413 80.992 154.413 81.9091ZM170.728 70.0909V89H167.385V70.0909H170.728ZM180.351 89.277C178.966 89.277 177.765 88.9723 176.75 88.3629C175.734 87.7536 174.946 86.901 174.386 85.8054C173.832 84.7098 173.555 83.4295 173.555 81.9645C173.555 80.4995 173.832 79.2161 174.386 78.1143C174.946 77.0125 175.734 76.157 176.75 75.5476C177.765 74.9382 178.966 74.6335 180.351 74.6335C181.736 74.6335 182.936 74.9382 183.952 75.5476C184.967 76.157 185.752 77.0125 186.306 78.1143C186.866 79.2161 187.146 80.4995 187.146 81.9645C187.146 83.4295 186.866 84.7098 186.306 85.8054C185.752 86.901 184.967 87.7536 183.952 88.3629C182.936 88.9723 181.736 89.277 180.351 89.277ZM180.369 86.5994C181.12 86.5994 181.748 86.3932 182.253 85.9808C182.757 85.5623 183.133 85.0021 183.379 84.3004C183.631 83.5987 183.758 82.817 183.758 81.9553C183.758 81.0874 183.631 80.3026 183.379 79.6009C183.133 78.893 182.757 78.3298 182.253 77.9112C181.748 77.4927 181.12 77.2834 180.369 77.2834C179.6 77.2834 178.96 77.4927 178.449 77.9112C177.944 78.3298 177.565 78.893 177.313 79.6009C177.067 80.3026 176.944 81.0874 176.944 81.9553C176.944 82.817 177.067 83.5987 177.313 84.3004C177.565 85.0021 177.944 85.5623 178.449 85.9808C178.96 86.3932 179.6 86.5994 180.369 86.5994ZM189.983 89V74.8182H193.224V77.1818H193.371C193.63 76.3632 194.073 75.7322 194.701 75.2891C195.335 74.8397 196.058 74.6151 196.871 74.6151C197.055 74.6151 197.262 74.6243 197.489 74.6428C197.723 74.6551 197.917 74.6766 198.071 74.7074V77.782C197.929 77.7327 197.705 77.6896 197.397 77.6527C197.095 77.6096 196.803 77.5881 196.52 77.5881C195.911 77.5881 195.363 77.7204 194.876 77.9851C194.396 78.2436 194.018 78.6037 193.741 79.0653C193.464 79.527 193.325 80.0594 193.325 80.6626V89H189.983ZM205.986 89.277C204.564 89.277 203.336 88.9815 202.302 88.3906C201.274 87.7936 200.483 86.9503 199.929 85.8608C199.375 84.7652 199.098 83.4756 199.098 81.9922C199.098 80.5334 199.375 79.2531 199.929 78.1513C200.489 77.0433 201.271 76.1816 202.274 75.5661C203.278 74.9444 204.456 74.6335 205.811 74.6335C206.685 74.6335 207.509 74.7751 208.285 75.0582C209.067 75.3352 209.756 75.7661 210.353 76.3509C210.956 76.9356 211.43 77.6804 211.775 78.5852C212.12 79.4839 212.292 80.5549 212.292 81.7983V82.8232H200.668V80.5703H209.088C209.082 79.9302 208.944 79.3608 208.673 78.8622C208.402 78.3575 208.023 77.9605 207.537 77.6712C207.057 77.3819 206.497 77.2372 205.857 77.2372C205.173 77.2372 204.573 77.4034 204.056 77.7358C203.539 78.062 203.136 78.4929 202.847 79.0284C202.564 79.5578 202.419 80.1394 202.413 80.7734V82.7401C202.413 83.5649 202.564 84.2727 202.865 84.8636C203.167 85.4484 203.588 85.8977 204.13 86.2116C204.672 86.5194 205.306 86.6733 206.032 86.6733C206.518 86.6733 206.959 86.6056 207.352 86.4702C207.746 86.3286 208.088 86.1224 208.377 85.8516C208.667 85.5807 208.885 85.2453 209.033 84.8452L212.154 85.196C211.957 86.0208 211.581 86.741 211.027 87.3565C210.479 87.9659 209.778 88.4399 208.922 88.7784C208.066 89.1108 207.088 89.277 205.986 89.277Z" fill="white"/>
<defs>
<filter id="filter0_d_36_255" x="0" y="0" width="329" height="180" filterUnits="userSpaceOnUse" color-interpolation-filters="sRGB">
<feFlood flood-opacity="0" result="BackgroundImageFix"/>
<feColorMatrix in="SourceAlpha" type="matrix" values="0 0 0 0 0 0 0 0 0 0 0 0 0 0 0 0 0 0 127 0" result="hardAlpha"/>
<feOffset dx="-2" dy="10"/>
<feGaussianBlur stdDeviation="25"/>
<feComposite in2="hardAlpha" operator="out"/>
<feColorMatrix type="matrix" values="0 0 0 0 0.223529 0 0 0 0 0.858824 0 0 0 0 0.290196 0 0 0 0.5 0"/>
<feBlend mode="normal" in2="BackgroundImageFix" result="effect1_dropShadow_36_255"/>
<feBlend mode="normal" in="SourceGraphic" in2="effect1_dropShadow_36_255" result="shape"/>
</filter>
</defs>
</svg>
