<svg width="512" height="30" viewBox="0 0 512 30" fill="none" xmlns="http://www.w3.org/2000/svg">
<path d="M12.6 8.1V22H10.32V15.92H3.78V22H1.5V8.1H3.78V14.06H10.32V8.1H12.6ZM20.3816 22.18C19.3416 22.18 18.4016 21.9467 17.5616 21.48C16.7216 21 16.0616 20.3333 15.5816 19.48C15.1016 18.6133 14.8616 17.6133 14.8616 16.48C14.8616 15.36 15.1082 14.3667 15.6016 13.5C16.0949 12.6333 16.7682 11.9667 17.6216 11.5C18.4749 11.0333 19.4282 10.8 20.4816 10.8C21.5349 10.8 22.4882 11.0333 23.3416 11.5C24.1949 11.9667 24.8682 12.6333 25.3616 13.5C25.8549 14.3667 26.1016 15.36 26.1016 16.48C26.1016 17.6 25.8482 18.5933 25.3416 19.46C24.8349 20.3267 24.1416 21 23.2616 21.48C22.3949 21.9467 21.4349 22.18 20.3816 22.18ZM20.3816 20.2C20.9682 20.2 21.5149 20.06 22.0216 19.78C22.5416 19.5 22.9616 19.08 23.2816 18.52C23.6016 17.96 23.7616 17.28 23.7616 16.48C23.7616 15.68 23.6082 15.0067 23.3016 14.46C22.9949 13.9 22.5882 13.48 22.0816 13.2C21.5749 12.92 21.0282 12.78 20.4416 12.78C19.8549 12.78 19.3082 12.92 18.8016 13.2C18.3082 13.48 17.9149 13.9 17.6216 14.46C17.3282 15.0067 17.1816 15.68 17.1816 16.48C17.1816 17.6667 17.4816 18.5867 18.0816 19.24C18.6949 19.88 19.4616 20.2 20.3816 20.2ZM41.6955 10.8C42.5621 10.8 43.3355 10.98 44.0155 11.34C44.7088 11.7 45.2488 12.2333 45.6355 12.94C46.0355 13.6467 46.2355 14.5 46.2355 15.5V22H43.9755V15.84C43.9755 14.8533 43.7288 14.1 43.2355 13.58C42.7421 13.0467 42.0688 12.78 41.2155 12.78C40.3621 12.78 39.6821 13.0467 39.1755 13.58C38.6821 14.1 38.4355 14.8533 38.4355 15.84V22H36.1755V15.84C36.1755 14.8533 35.9288 14.1 35.4355 13.58C34.9421 13.0467 34.2688 12.78 33.4155 12.78C32.5621 12.78 31.8821 13.0467 31.3755 13.58C30.8821 14.1 30.6355 14.8533 30.6355 15.84V22H28.3555V10.98H30.6355V12.24C31.0088 11.7867 31.4821 11.4333 32.0555 11.18C32.6288 10.9267 33.2421 10.8 33.8955 10.8C34.7755 10.8 35.5621 10.9867 36.2555 11.36C36.9488 11.7333 37.4821 12.2733 37.8555 12.98C38.1888 12.3133 38.7088 11.7867 39.4155 11.4C40.1221 11 40.8821 10.8 41.6955 10.8ZM59.2367 16.22C59.2367 16.6333 59.2101 17.0067 59.1567 17.34H50.7367C50.8034 18.22 51.1301 18.9267 51.7167 19.46C52.3034 19.9933 53.0234 20.26 53.8767 20.26C55.1034 20.26 55.9701 19.7467 56.4767 18.72H58.9367C58.6034 19.7333 57.9967 20.5667 57.1167 21.22C56.2501 21.86 55.1701 22.18 53.8767 22.18C52.8234 22.18 51.8767 21.9467 51.0367 21.48C50.2101 21 49.5567 20.3333 49.0767 19.48C48.6101 18.6133 48.3767 17.6133 48.3767 16.48C48.3767 15.3467 48.6034 14.3533 49.0567 13.5C49.5234 12.6333 50.1701 11.9667 50.9967 11.5C51.8367 11.0333 52.7967 10.8 53.8767 10.8C54.9167 10.8 55.8434 11.0267 56.6567 11.48C57.4701 11.9333 58.1034 12.5733 58.5567 13.4C59.0101 14.2133 59.2367 15.1533 59.2367 16.22ZM56.8567 15.5C56.8434 14.66 56.5434 13.9867 55.9567 13.48C55.3701 12.9733 54.6434 12.72 53.7767 12.72C52.9901 12.72 52.3167 12.9733 51.7567 13.48C51.1967 13.9733 50.8634 14.6467 50.7567 15.5H56.8567Z" fill="#36CC45"/>
<path d="M105.14 8.1V22H102.86V12.48L98.62 22H97.04L92.78 12.48V22H90.5V8.1H92.96L97.84 19L102.7 8.1H105.14ZM118.237 16.22C118.237 16.6333 118.21 17.0067 118.157 17.34H109.737C109.803 18.22 110.13 18.9267 110.717 19.46C111.303 19.9933 112.023 20.26 112.877 20.26C114.103 20.26 114.97 19.7467 115.477 18.72H117.937C117.603 19.7333 116.997 20.5667 116.117 21.22C115.25 21.86 114.17 22.18 112.877 22.18C111.823 22.18 110.877 21.9467 110.037 21.48C109.21 21 108.557 20.3333 108.077 19.48C107.61 18.6133 107.377 17.6133 107.377 16.48C107.377 15.3467 107.603 14.3533 108.057 13.5C108.523 12.6333 109.17 11.9667 109.997 11.5C110.837 11.0333 111.797 10.8 112.877 10.8C113.917 10.8 114.843 11.0267 115.657 11.48C116.47 11.9333 117.103 12.5733 117.557 13.4C118.01 14.2133 118.237 15.1533 118.237 16.22ZM115.857 15.5C115.843 14.66 115.543 13.9867 114.957 13.48C114.37 12.9733 113.643 12.72 112.777 12.72C111.99 12.72 111.317 12.9733 110.757 13.48C110.197 13.9733 109.863 14.6467 109.757 15.5H115.857ZM126.04 10.8C126.907 10.8 127.68 10.98 128.36 11.34C129.054 11.7 129.594 12.2333 129.98 12.94C130.367 13.6467 130.56 14.5 130.56 15.5V22H128.3V15.84C128.3 14.8533 128.054 14.1 127.56 13.58C127.067 13.0467 126.394 12.78 125.54 12.78C124.687 12.78 124.007 13.0467 123.5 13.58C123.007 14.1 122.76 14.8533 122.76 15.84V22H120.48V10.98H122.76V12.24C123.134 11.7867 123.607 11.4333 124.18 11.18C124.767 10.9267 125.387 10.8 126.04 10.8ZM143.449 10.98V22H141.169V20.7C140.809 21.1533 140.335 21.5133 139.749 21.78C139.175 22.0333 138.562 22.16 137.909 22.16C137.042 22.16 136.262 21.98 135.569 21.62C134.889 21.26 134.349 20.7267 133.949 20.02C133.562 19.3133 133.369 18.46 133.369 17.46V10.98H135.629V17.12C135.629 18.1067 135.875 18.8667 136.369 19.4C136.862 19.92 137.535 20.18 138.389 20.18C139.242 20.18 139.915 19.92 140.409 19.4C140.915 18.8667 141.169 18.1067 141.169 17.12V10.98H143.449Z" fill="black"/>
<line x1="1.5" y1="-1.5" x2="10.3242" y2="-1.5" transform="matrix(0.772629 0.634857 -0.486209 0.873843 149.401 14.5977)" stroke="#39DB4A" stroke-width="3" stroke-linecap="round"/>
<line x1="1.5" y1="-1.5" x2="10.5963" y2="-1.5" transform="matrix(-0.674688 0.738103 -0.591989 -0.805946 164.848 10.8754)" stroke="#39DB4A" stroke-width="3" stroke-linecap="round"/>
<path d="M203.728 19.16H197.908L196.908 22H194.528L199.508 8.08H202.148L207.128 22H204.728L203.728 19.16ZM203.088 17.3L200.828 10.84L198.548 17.3H203.088ZM211.573 12.62C211.96 12.0867 212.487 11.6533 213.153 11.32C213.833 10.9733 214.587 10.8 215.413 10.8C216.387 10.8 217.267 11.0333 218.053 11.5C218.84 11.9667 219.46 12.6333 219.913 13.5C220.367 14.3533 220.593 15.3333 220.593 16.44C220.593 17.5467 220.367 18.54 219.913 19.42C219.46 20.2867 218.833 20.9667 218.033 21.46C217.247 21.94 216.373 22.18 215.413 22.18C214.56 22.18 213.8 22.0133 213.133 21.68C212.48 21.3467 211.96 20.92 211.573 20.4V22H209.293V7.2H211.573V12.62ZM218.273 16.44C218.273 15.68 218.113 15.0267 217.793 14.48C217.487 13.92 217.073 13.5 216.553 13.22C216.047 12.9267 215.5 12.78 214.913 12.78C214.34 12.78 213.793 12.9267 213.273 13.22C212.767 13.5133 212.353 13.94 212.033 14.5C211.727 15.06 211.573 15.72 211.573 16.48C211.573 17.24 211.727 17.9067 212.033 18.48C212.353 19.04 212.767 19.4667 213.273 19.76C213.793 20.0533 214.34 20.2 214.913 20.2C215.5 20.2 216.047 20.0533 216.553 19.76C217.073 19.4533 217.487 19.0133 217.793 18.44C218.113 17.8667 218.273 17.2 218.273 16.44ZM227.628 22.18C226.588 22.18 225.648 21.9467 224.808 21.48C223.968 21 223.308 20.3333 222.828 19.48C222.348 18.6133 222.108 17.6133 222.108 16.48C222.108 15.36 222.355 14.3667 222.848 13.5C223.341 12.6333 224.015 11.9667 224.868 11.5C225.721 11.0333 226.675 10.8 227.728 10.8C228.781 10.8 229.735 11.0333 230.588 11.5C231.441 11.9667 232.115 12.6333 232.608 13.5C233.101 14.3667 233.348 15.36 233.348 16.48C233.348 17.6 233.095 18.5933 232.588 19.46C232.081 20.3267 231.388 21 230.508 21.48C229.641 21.9467 228.681 22.18 227.628 22.18ZM227.628 20.2C228.215 20.2 228.761 20.06 229.268 19.78C229.788 19.5 230.208 19.08 230.528 18.52C230.848 17.96 231.008 17.28 231.008 16.48C231.008 15.68 230.855 15.0067 230.548 14.46C230.241 13.9 229.835 13.48 229.328 13.2C228.821 12.92 228.275 12.78 227.688 12.78C227.101 12.78 226.555 12.92 226.048 13.2C225.555 13.48 225.161 13.9 224.868 14.46C224.575 15.0067 224.428 15.68 224.428 16.48C224.428 17.6667 224.728 18.5867 225.328 19.24C225.941 19.88 226.708 20.2 227.628 20.2ZM245.582 10.98V22H243.302V20.7C242.942 21.1533 242.469 21.5133 241.882 21.78C241.309 22.0333 240.695 22.16 240.042 22.16C239.175 22.16 238.395 21.98 237.702 21.62C237.022 21.26 236.482 20.7267 236.082 20.02C235.695 19.3133 235.502 18.46 235.502 17.46V10.98H237.762V17.12C237.762 18.1067 238.009 18.8667 238.502 19.4C238.995 19.92 239.669 20.18 240.522 20.18C241.375 20.18 242.049 19.92 242.542 19.4C243.049 18.8667 243.302 18.1067 243.302 17.12V10.98H245.582ZM251.25 12.84V18.94C251.25 19.3533 251.344 19.6533 251.53 19.84C251.73 20.0133 252.064 20.1 252.53 20.1H253.93V22H252.13C251.104 22 250.317 21.76 249.77 21.28C249.224 20.8 248.95 20.02 248.95 18.94V12.84H247.65V10.98H248.95V8.24H251.25V10.98H253.93V12.84H251.25ZM263.487 8.1V16.96C263.487 18.0133 263.76 18.8067 264.307 19.34C264.867 19.8733 265.64 20.14 266.627 20.14C267.627 20.14 268.4 19.8733 268.947 19.34C269.507 18.8067 269.787 18.0133 269.787 16.96V8.1H272.067V16.92C272.067 18.0533 271.82 19.0133 271.327 19.8C270.834 20.5867 270.174 21.1733 269.347 21.56C268.52 21.9467 267.607 22.14 266.607 22.14C265.607 22.14 264.694 21.9467 263.867 21.56C263.054 21.1733 262.407 20.5867 261.927 19.8C261.447 19.0133 261.207 18.0533 261.207 16.92V8.1H263.487ZM279.036 22.18C278.169 22.18 277.389 22.0267 276.696 21.72C276.016 21.4 275.476 20.9733 275.076 20.44C274.676 19.8933 274.462 19.2867 274.436 18.62H276.796C276.836 19.0867 277.056 19.48 277.456 19.8C277.869 20.1067 278.382 20.26 278.996 20.26C279.636 20.26 280.129 20.14 280.476 19.9C280.836 19.6467 281.016 19.3267 281.016 18.94C281.016 18.5267 280.816 18.22 280.416 18.02C280.029 17.82 279.409 17.6 278.556 17.36C277.729 17.1333 277.056 16.9133 276.536 16.7C276.016 16.4867 275.562 16.16 275.176 15.72C274.802 15.28 274.616 14.7 274.616 13.98C274.616 13.3933 274.789 12.86 275.136 12.38C275.482 11.8867 275.976 11.5 276.616 11.22C277.269 10.94 278.016 10.8 278.856 10.8C280.109 10.8 281.116 11.12 281.876 11.76C282.649 12.3867 283.062 13.2467 283.116 14.34H280.836C280.796 13.8467 280.596 13.4533 280.236 13.16C279.876 12.8667 279.389 12.72 278.776 12.72C278.176 12.72 277.716 12.8333 277.396 13.06C277.076 13.2867 276.916 13.5867 276.916 13.96C276.916 14.2533 277.022 14.5 277.236 14.7C277.449 14.9 277.709 15.06 278.016 15.18C278.322 15.2867 278.776 15.4267 279.376 15.6C280.176 15.8133 280.829 16.0333 281.336 16.26C281.856 16.4733 282.302 16.7933 282.676 17.22C283.049 17.6467 283.242 18.2133 283.256 18.92C283.256 19.5467 283.082 20.1067 282.736 20.6C282.389 21.0933 281.896 21.48 281.256 21.76C280.629 22.04 279.889 22.18 279.036 22.18Z" fill="black"/>
<path d="M319.928 22.14C318.995 22.14 318.155 21.98 317.408 21.66C316.661 21.3267 316.075 20.86 315.648 20.26C315.221 19.66 315.008 18.96 315.008 18.16H317.448C317.501 18.76 317.735 19.2533 318.148 19.64C318.575 20.0267 319.168 20.22 319.928 20.22C320.715 20.22 321.328 20.0333 321.768 19.66C322.208 19.2733 322.428 18.78 322.428 18.18C322.428 17.7133 322.288 17.3333 322.008 17.04C321.741 16.7467 321.401 16.52 320.988 16.36C320.588 16.2 320.028 16.0267 319.308 15.84C318.401 15.6 317.661 15.36 317.088 15.12C316.528 14.8667 316.048 14.48 315.648 13.96C315.248 13.44 315.048 12.7467 315.048 11.88C315.048 11.08 315.248 10.38 315.648 9.78C316.048 9.18 316.608 8.72 317.328 8.4C318.048 8.08 318.881 7.92 319.828 7.92C321.175 7.92 322.275 8.26 323.128 8.94C323.995 9.60667 324.475 10.5267 324.568 11.7H322.048C322.008 11.1933 321.768 10.76 321.328 10.4C320.888 10.04 320.308 9.86 319.588 9.86C318.935 9.86 318.401 10.0267 317.988 10.36C317.575 10.6933 317.368 11.1733 317.368 11.8C317.368 12.2267 317.495 12.58 317.748 12.86C318.015 13.1267 318.348 13.34 318.748 13.5C319.148 13.66 319.695 13.8333 320.388 14.02C321.308 14.2733 322.055 14.5267 322.628 14.78C323.215 15.0333 323.708 15.4267 324.108 15.96C324.521 16.48 324.728 17.18 324.728 18.06C324.728 18.7667 324.535 19.4333 324.148 20.06C323.775 20.6867 323.221 21.1933 322.488 21.58C321.768 21.9533 320.915 22.14 319.928 22.14ZM337.518 16.22C337.518 16.6333 337.492 17.0067 337.438 17.34H329.018C329.085 18.22 329.412 18.9267 329.998 19.46C330.585 19.9933 331.305 20.26 332.158 20.26C333.385 20.26 334.252 19.7467 334.758 18.72H337.218C336.885 19.7333 336.278 20.5667 335.398 21.22C334.532 21.86 333.452 22.18 332.158 22.18C331.105 22.18 330.158 21.9467 329.318 21.48C328.492 21 327.838 20.3333 327.358 19.48C326.892 18.6133 326.658 17.6133 326.658 16.48C326.658 15.3467 326.885 14.3533 327.338 13.5C327.805 12.6333 328.452 11.9667 329.278 11.5C330.118 11.0333 331.078 10.8 332.158 10.8C333.198 10.8 334.125 11.0267 334.938 11.48C335.752 11.9333 336.385 12.5733 336.838 13.4C337.292 14.2133 337.518 15.1533 337.518 16.22ZM335.138 15.5C335.125 14.66 334.825 13.9867 334.238 13.48C333.652 12.9733 332.925 12.72 332.058 12.72C331.272 12.72 330.598 12.9733 330.038 13.48C329.478 13.9733 329.145 14.6467 329.038 15.5H335.138ZM342.042 12.58C342.375 12.02 342.815 11.5867 343.362 11.28C343.922 10.96 344.582 10.8 345.342 10.8V13.16H344.762C343.869 13.16 343.189 13.3867 342.722 13.84C342.269 14.2933 342.042 15.08 342.042 16.2V22H339.762V10.98H342.042V12.58ZM351.698 19.96L354.818 10.98H357.238L353.038 22H350.318L346.138 10.98H348.578L351.698 19.96ZM360.121 9.52C359.708 9.52 359.361 9.38 359.081 9.1C358.801 8.82 358.661 8.47333 358.661 8.06C358.661 7.64667 358.801 7.3 359.081 7.02C359.361 6.74 359.708 6.6 360.121 6.6C360.521 6.6 360.861 6.74 361.141 7.02C361.421 7.3 361.561 7.64667 361.561 8.06C361.561 8.47333 361.421 8.82 361.141 9.1C360.861 9.38 360.521 9.52 360.121 9.52ZM361.241 10.98V22H358.961V10.98H361.241ZM363.475 16.48C363.475 15.3467 363.701 14.3533 364.155 13.5C364.621 12.6333 365.261 11.9667 366.075 11.5C366.888 11.0333 367.821 10.8 368.875 10.8C370.208 10.8 371.308 11.12 372.175 11.76C373.055 12.3867 373.648 13.2867 373.955 14.46H371.495C371.295 13.9133 370.975 13.4867 370.535 13.18C370.095 12.8733 369.541 12.72 368.875 12.72C367.941 12.72 367.195 13.0533 366.635 13.72C366.088 14.3733 365.815 15.2933 365.815 16.48C365.815 17.6667 366.088 18.5933 366.635 19.26C367.195 19.9267 367.941 20.26 368.875 20.26C370.195 20.26 371.068 19.68 371.495 18.52H373.955C373.635 19.64 373.035 20.5333 372.155 21.2C371.275 21.8533 370.181 22.18 368.875 22.18C367.821 22.18 366.888 21.9467 366.075 21.48C365.261 21 364.621 20.3333 364.155 19.48C363.701 18.6133 363.475 17.6133 363.475 16.48ZM386.327 16.22C386.327 16.6333 386.3 17.0067 386.247 17.34H377.827C377.894 18.22 378.22 18.9267 378.807 19.46C379.394 19.9933 380.114 20.26 380.967 20.26C382.194 20.26 383.06 19.7467 383.567 18.72H386.027C385.694 19.7333 385.087 20.5667 384.207 21.22C383.34 21.86 382.26 22.18 380.967 22.18C379.914 22.18 378.967 21.9467 378.127 21.48C377.3 21 376.647 20.3333 376.167 19.48C375.7 18.6133 375.467 17.6133 375.467 16.48C375.467 15.3467 375.694 14.3533 376.147 13.5C376.614 12.6333 377.26 11.9667 378.087 11.5C378.927 11.0333 379.887 10.8 380.967 10.8C382.007 10.8 382.934 11.0267 383.747 11.48C384.56 11.9333 385.194 12.5733 385.647 13.4C386.1 14.2133 386.327 15.1533 386.327 16.22ZM383.947 15.5C383.934 14.66 383.634 13.9867 383.047 13.48C382.46 12.9733 381.734 12.72 380.867 12.72C380.08 12.72 379.407 12.9733 378.847 13.48C378.287 13.9733 377.954 14.6467 377.847 15.5H383.947ZM392.571 22.18C391.704 22.18 390.924 22.0267 390.231 21.72C389.551 21.4 389.011 20.9733 388.611 20.44C388.211 19.8933 387.997 19.2867 387.971 18.62H390.331C390.371 19.0867 390.591 19.48 390.991 19.8C391.404 20.1067 391.917 20.26 392.531 20.26C393.171 20.26 393.664 20.14 394.011 19.9C394.371 19.6467 394.551 19.3267 394.551 18.94C394.551 18.5267 394.351 18.22 393.951 18.02C393.564 17.82 392.944 17.6 392.091 17.36C391.264 17.1333 390.591 16.9133 390.071 16.7C389.551 16.4867 389.097 16.16 388.711 15.72C388.337 15.28 388.151 14.7 388.151 13.98C388.151 13.3933 388.324 12.86 388.671 12.38C389.017 11.8867 389.511 11.5 390.151 11.22C390.804 10.94 391.551 10.8 392.391 10.8C393.644 10.8 394.651 11.12 395.411 11.76C396.184 12.3867 396.597 13.2467 396.651 14.34H394.371C394.331 13.8467 394.131 13.4533 393.771 13.16C393.411 12.8667 392.924 12.72 392.311 12.72C391.711 12.72 391.251 12.8333 390.931 13.06C390.611 13.2867 390.451 13.5867 390.451 13.96C390.451 14.2533 390.557 14.5 390.771 14.7C390.984 14.9 391.244 15.06 391.551 15.18C391.857 15.2867 392.311 15.4267 392.911 15.6C393.711 15.8133 394.364 16.0333 394.871 16.26C395.391 16.4733 395.837 16.7933 396.211 17.22C396.584 17.6467 396.777 18.2133 396.791 18.92C396.791 19.5467 396.617 20.1067 396.271 20.6C395.924 21.0933 395.431 21.48 394.791 21.76C394.164 22.04 393.424 22.18 392.571 22.18Z" fill="black"/>
<line x1="1.5" y1="-1.5" x2="10.4045" y2="-1.5" transform="matrix(0.775739 0.631054 -0.489755 0.87186 407.249 14.5978)" stroke="#39DB4A" stroke-width="3" stroke-linecap="round"/>
<line x1="1.5" y1="-1.5" x2="10.6465" y2="-1.5" transform="matrix(-0.678417 0.734677 -0.596077 -0.802927 422.854 10.8842)" stroke="#39DB4A" stroke-width="3" stroke-linecap="round"/>
<path d="M459.694 22.14C458.4 22.14 457.207 21.84 456.114 21.24C455.034 20.6267 454.174 19.78 453.534 18.7C452.907 17.6067 452.594 16.38 452.594 15.02C452.594 13.66 452.907 12.44 453.534 11.36C454.174 10.28 455.034 9.44 456.114 8.84C457.207 8.22667 458.4 7.92 459.694 7.92C461 7.92 462.194 8.22667 463.274 8.84C464.367 9.44 465.227 10.28 465.854 11.36C466.48 12.44 466.794 13.66 466.794 15.02C466.794 16.38 466.48 17.6067 465.854 18.7C465.227 19.78 464.367 20.6267 463.274 21.24C462.194 21.84 461 22.14 459.694 22.14ZM459.694 20.16C460.614 20.16 461.434 19.9533 462.154 19.54C462.874 19.1133 463.434 18.5133 463.834 17.74C464.247 16.9533 464.454 16.0467 464.454 15.02C464.454 13.9933 464.247 13.0933 463.834 12.32C463.434 11.5467 462.874 10.9533 462.154 10.54C461.434 10.1267 460.614 9.92 459.694 9.92C458.774 9.92 457.954 10.1267 457.234 10.54C456.514 10.9533 455.947 11.5467 455.534 12.32C455.134 13.0933 454.934 13.9933 454.934 15.02C454.934 16.0467 455.134 16.9533 455.534 17.74C455.947 18.5133 456.514 19.1133 457.234 19.54C457.954 19.9533 458.774 20.16 459.694 20.16ZM473.657 12.84H471.617V22H469.317V12.84H468.017V10.98H469.317V10.2C469.317 8.93333 469.651 8.01333 470.317 7.44C470.997 6.85333 472.057 6.56 473.497 6.56V8.46C472.804 8.46 472.317 8.59333 472.037 8.86C471.757 9.11333 471.617 9.56 471.617 10.2V10.98H473.657V12.84ZM480.298 12.84H478.258V22H475.958V12.84H474.658V10.98H475.958V10.2C475.958 8.93333 476.291 8.01333 476.958 7.44C477.638 6.85333 478.698 6.56 480.138 6.56V8.46C479.444 8.46 478.958 8.59333 478.678 8.86C478.398 9.11333 478.258 9.56 478.258 10.2V10.98H480.298V12.84ZM492.418 16.22C492.418 16.6333 492.392 17.0067 492.338 17.34H483.918C483.985 18.22 484.312 18.9267 484.898 19.46C485.485 19.9933 486.205 20.26 487.058 20.26C488.285 20.26 489.152 19.7467 489.658 18.72H492.118C491.785 19.7333 491.178 20.5667 490.298 21.22C489.432 21.86 488.352 22.18 487.058 22.18C486.005 22.18 485.058 21.9467 484.218 21.48C483.392 21 482.738 20.3333 482.258 19.48C481.792 18.6133 481.558 17.6133 481.558 16.48C481.558 15.3467 481.785 14.3533 482.238 13.5C482.705 12.6333 483.352 11.9667 484.178 11.5C485.018 11.0333 485.978 10.8 487.058 10.8C488.098 10.8 489.025 11.0267 489.838 11.48C490.652 11.9333 491.285 12.5733 491.738 13.4C492.192 14.2133 492.418 15.1533 492.418 16.22ZM490.038 15.5C490.025 14.66 489.725 13.9867 489.138 13.48C488.552 12.9733 487.825 12.72 486.958 12.72C486.172 12.72 485.498 12.9733 484.938 13.48C484.378 13.9733 484.045 14.6467 483.938 15.5H490.038ZM496.942 12.58C497.276 12.02 497.716 11.5867 498.262 11.28C498.822 10.96 499.482 10.8 500.242 10.8V13.16H499.662C498.769 13.16 498.089 13.3867 497.622 13.84C497.169 14.2933 496.942 15.08 496.942 16.2V22H494.662V10.98H496.942V12.58ZM506.338 22.18C505.471 22.18 504.691 22.0267 503.998 21.72C503.318 21.4 502.778 20.9733 502.378 20.44C501.978 19.8933 501.765 19.2867 501.738 18.62H504.098C504.138 19.0867 504.358 19.48 504.758 19.8C505.171 20.1067 505.685 20.26 506.298 20.26C506.938 20.26 507.431 20.14 507.778 19.9C508.138 19.6467 508.318 19.3267 508.318 18.94C508.318 18.5267 508.118 18.22 507.718 18.02C507.331 17.82 506.711 17.6 505.858 17.36C505.031 17.1333 504.358 16.9133 503.838 16.7C503.318 16.4867 502.865 16.16 502.478 15.72C502.105 15.28 501.918 14.7 501.918 13.98C501.918 13.3933 502.091 12.86 502.438 12.38C502.785 11.8867 503.278 11.5 503.918 11.22C504.571 10.94 505.318 10.8 506.158 10.8C507.411 10.8 508.418 11.12 509.178 11.76C509.951 12.3867 510.365 13.2467 510.418 14.34H508.138C508.098 13.8467 507.898 13.4533 507.538 13.16C507.178 12.8667 506.691 12.72 506.078 12.72C505.478 12.72 505.018 12.8333 504.698 13.06C504.378 13.2867 504.218 13.5867 504.218 13.96C504.218 14.2533 504.325 14.5 504.538 14.7C504.751 14.9 505.011 15.06 505.318 15.18C505.625 15.2867 506.078 15.4267 506.678 15.6C507.478 15.8133 508.131 16.0333 508.638 16.26C509.158 16.4733 509.605 16.7933 509.978 17.22C510.351 17.6467 510.545 18.2133 510.558 18.92C510.558 19.5467 510.385 20.1067 510.038 20.6C509.691 21.0933 509.198 21.48 508.558 21.76C507.931 22.04 507.191 22.18 506.338 22.18Z" fill="black"/>
</svg>
