<svg width="329" height="180" viewBox="0 0 329 180" fill="none" xmlns="http://www.w3.org/2000/svg">
<g filter="url(#filter0_d_82_103)">
<rect x="52" y="40" width="229" height="80" rx="40" fill="#39DB4A"/>
</g>
<path d="M117.761 79.5455C117.761 81.5829 117.38 83.3279 116.616 84.7805C115.859 86.227 114.825 87.335 113.514 88.1044C112.209 88.8738 110.729 89.2585 109.073 89.2585C107.417 89.2585 105.934 88.8738 104.623 88.1044C103.318 87.3288 102.284 86.2178 101.521 84.7713C100.763 83.3187 100.385 81.5767 100.385 79.5455C100.385 77.508 100.763 75.7661 101.521 74.3196C102.284 72.867 103.318 71.7559 104.623 70.9865C105.934 70.2171 107.417 69.8324 109.073 69.8324C110.729 69.8324 112.209 70.2171 113.514 70.9865C114.825 71.7559 115.859 72.867 116.616 74.3196C117.38 75.7661 117.761 77.508 117.761 79.5455ZM114.317 79.5455C114.317 78.1113 114.093 76.9018 113.643 75.9169C113.2 74.9259 112.585 74.178 111.797 73.6733C111.009 73.1624 110.101 72.907 109.073 72.907C108.045 72.907 107.137 73.1624 106.349 73.6733C105.562 74.178 104.943 74.9259 104.494 75.9169C104.05 76.9018 103.829 78.1113 103.829 79.5455C103.829 80.9796 104.05 82.1922 104.494 83.1832C104.943 84.1681 105.562 84.916 106.349 85.4268C107.137 85.9316 108.045 86.1839 109.073 86.1839C110.101 86.1839 111.009 85.9316 111.797 85.4268C112.585 84.916 113.2 84.1681 113.643 83.1832C114.093 82.1922 114.317 80.9796 114.317 79.5455ZM120.852 89V74.8182H124.093V77.1818H124.241C124.499 76.3632 124.942 75.7322 125.57 75.2891C126.204 74.8397 126.927 74.6151 127.74 74.6151C127.925 74.6151 128.131 74.6243 128.358 74.6428C128.592 74.6551 128.786 74.6766 128.94 74.7074V77.782C128.799 77.7327 128.574 77.6896 128.266 77.6527C127.965 77.6096 127.672 77.5881 127.389 77.5881C126.78 77.5881 126.232 77.7204 125.746 77.9851C125.265 78.2436 124.887 78.6037 124.61 79.0653C124.333 79.527 124.194 80.0594 124.194 80.6626V89H120.852ZM135.839 89.2493C134.725 89.2493 133.728 88.9631 132.848 88.3906C131.968 87.8182 131.272 86.9872 130.761 85.8977C130.25 84.8082 129.995 83.4848 129.995 81.9276C129.995 80.3518 130.254 79.0223 130.771 77.9389C131.294 76.8494 131.999 76.0277 132.885 75.4737C133.771 74.9136 134.759 74.6335 135.849 74.6335C136.68 74.6335 137.363 74.7751 137.898 75.0582C138.434 75.3352 138.859 75.6707 139.173 76.0646C139.487 76.4524 139.73 76.8187 139.902 77.1634H140.04V70.0909H143.392V89H140.105V86.7656H139.902C139.73 87.1103 139.48 87.4766 139.154 87.8643C138.828 88.246 138.397 88.5722 137.862 88.843C137.326 89.1139 136.652 89.2493 135.839 89.2493ZM136.772 86.5071C137.48 86.5071 138.083 86.3163 138.582 85.9347C139.08 85.5469 139.459 85.0083 139.717 84.3189C139.976 83.6295 140.105 82.8262 140.105 81.9091C140.105 80.992 139.976 80.1948 139.717 79.5178C139.465 78.8407 139.089 78.3144 138.591 77.9389C138.098 77.5634 137.492 77.3757 136.772 77.3757C136.027 77.3757 135.406 77.5696 134.907 77.9574C134.408 78.3452 134.033 78.8807 133.781 79.5639C133.528 80.2472 133.402 81.0289 133.402 81.9091C133.402 82.7955 133.528 83.5864 133.781 84.282C134.039 84.9714 134.418 85.5161 134.916 85.9162C135.421 86.3101 136.04 86.5071 136.772 86.5071ZM153.232 89.277C151.81 89.277 150.582 88.9815 149.548 88.3906C148.52 87.7936 147.729 86.9503 147.175 85.8608C146.621 84.7652 146.344 83.4756 146.344 81.9922C146.344 80.5334 146.621 79.2531 147.175 78.1513C147.735 77.0433 148.517 76.1816 149.52 75.5661C150.524 74.9444 151.702 74.6335 153.057 74.6335C153.931 74.6335 154.756 74.7751 155.531 75.0582C156.313 75.3352 157.002 75.7661 157.599 76.3509C158.202 76.9356 158.676 77.6804 159.021 78.5852C159.366 79.4839 159.538 80.5549 159.538 81.7983V82.8232H147.914V80.5703H156.334C156.328 79.9302 156.19 79.3608 155.919 78.8622C155.648 78.3575 155.269 77.9605 154.783 77.6712C154.303 77.3819 153.743 77.2372 153.103 77.2372C152.42 77.2372 151.819 77.4034 151.302 77.7358C150.785 78.062 150.382 78.4929 150.093 79.0284C149.81 79.5578 149.665 80.1394 149.659 80.7734V82.7401C149.659 83.5649 149.81 84.2727 150.111 84.8636C150.413 85.4484 150.835 85.8977 151.376 86.2116C151.918 86.5194 152.552 86.6733 153.278 86.6733C153.765 86.6733 154.205 86.6056 154.599 86.4702C154.992 86.3286 155.334 86.1224 155.623 85.8516C155.913 85.5807 156.131 85.2453 156.279 84.8452L159.4 85.196C159.203 86.0208 158.827 86.741 158.273 87.3565C157.725 87.9659 157.024 88.4399 156.168 88.7784C155.313 89.1108 154.334 89.277 153.232 89.277ZM162.366 89V74.8182H165.607V77.1818H165.754C166.013 76.3632 166.456 75.7322 167.084 75.2891C167.718 74.8397 168.441 74.6151 169.254 74.6151C169.438 74.6151 169.644 74.6243 169.872 74.6428C170.106 74.6551 170.3 74.6766 170.454 74.7074V77.782C170.312 77.7327 170.088 77.6896 169.78 77.6527C169.478 77.6096 169.186 77.5881 168.903 77.5881C168.293 77.5881 167.746 77.7204 167.259 77.9851C166.779 78.2436 166.401 78.6037 166.124 79.0653C165.847 79.527 165.708 80.0594 165.708 80.6626V89H162.366ZM194.81 70.0909V89H191.763L182.854 76.12H182.697V89H179.271V70.0909H182.337L191.237 82.9801H191.403V70.0909H194.81ZM204.581 89.277C203.196 89.277 201.996 88.9723 200.98 88.3629C199.965 87.7536 199.177 86.901 198.617 85.8054C198.063 84.7098 197.786 83.4295 197.786 81.9645C197.786 80.4995 198.063 79.2161 198.617 78.1143C199.177 77.0125 199.965 76.157 200.98 75.5476C201.996 74.9382 203.196 74.6335 204.581 74.6335C205.966 74.6335 207.166 74.9382 208.182 75.5476C209.198 76.157 209.982 77.0125 210.536 78.1143C211.097 79.2161 211.377 80.4995 211.377 81.9645C211.377 83.4295 211.097 84.7098 210.536 85.8054C209.982 86.901 209.198 87.7536 208.182 88.3629C207.166 88.9723 205.966 89.277 204.581 89.277ZM204.6 86.5994C205.351 86.5994 205.978 86.3932 206.483 85.9808C206.988 85.5623 207.363 85.0021 207.61 84.3004C207.862 83.5987 207.988 82.817 207.988 81.9553C207.988 81.0874 207.862 80.3026 207.61 79.6009C207.363 78.893 206.988 78.3298 206.483 77.9112C205.978 77.4927 205.351 77.2834 204.6 77.2834C203.83 77.2834 203.19 77.4927 202.679 77.9112C202.174 78.3298 201.796 78.893 201.544 79.6009C201.297 80.3026 201.174 81.0874 201.174 81.9553C201.174 82.817 201.297 83.5987 201.544 84.3004C201.796 85.0021 202.174 85.5623 202.679 85.9808C203.19 86.3932 203.83 86.5994 204.6 86.5994ZM216.734 89L212.727 74.8182H216.134L218.627 84.7898H218.756L221.304 74.8182H224.674L227.223 84.7344H227.361L229.817 74.8182H233.233L229.217 89H225.736L223.077 79.4162H222.883L220.224 89H216.734Z" fill="white"/>
<defs>
<filter id="filter0_d_82_103" x="0" y="0" width="329" height="180" filterUnits="userSpaceOnUse" color-interpolation-filters="sRGB">
<feFlood flood-opacity="0" result="BackgroundImageFix"/>
<feColorMatrix in="SourceAlpha" type="matrix" values="0 0 0 0 0 0 0 0 0 0 0 0 0 0 0 0 0 0 127 0" result="hardAlpha"/>
<feOffset dx="-2" dy="10"/>
<feGaussianBlur stdDeviation="25"/>
<feComposite in2="hardAlpha" operator="out"/>
<feColorMatrix type="matrix" values="0 0 0 0 0.223529 0 0 0 0 0.858824 0 0 0 0 0.290196 0 0 0 0.5 0"/>
<feBlend mode="normal" in2="BackgroundImageFix" result="effect1_dropShadow_82_103"/>
<feBlend mode="normal" in="SourceGraphic" in2="effect1_dropShadow_82_103" result="shape"/>
</filter>
</defs>
</svg>
