<svg width="300" height="148" viewBox="0 0 300 148" fill="none" xmlns="http://www.w3.org/2000/svg">
<path d="M5.84446 56L0.507812 37.0909H4.19176L7.59872 50.9865H7.77415L11.4119 37.0909H14.7635L18.4105 50.9957H18.5767L21.9837 37.0909H25.6676L20.331 56H16.9517L13.1662 42.7322H13.0185L9.22372 56H5.84446ZM30.5288 56.2862C29.6301 56.2862 28.8207 56.1262 28.1005 55.8061C27.3865 55.4799 26.8202 54.9998 26.4016 54.3658C25.9892 53.7318 25.783 52.95 25.783 52.0206C25.783 51.2204 25.9308 50.5587 26.2262 50.0355C26.5217 49.5123 26.9248 49.0938 27.4357 48.7798C27.9466 48.4659 28.5221 48.2289 29.1623 48.0689C29.8086 47.9027 30.4764 47.7827 31.1658 47.7088C31.9968 47.6226 32.6708 47.5457 33.1879 47.478C33.7049 47.4041 34.0804 47.2933 34.3143 47.1456C34.5543 46.9917 34.6744 46.7547 34.6744 46.4347V46.3793C34.6744 45.6837 34.4682 45.1451 34.0558 44.7635C33.6433 44.3819 33.0494 44.1911 32.2738 44.1911C31.4551 44.1911 30.8058 44.3696 30.3256 44.7266C29.8517 45.0836 29.5316 45.5052 29.3654 45.9915L26.2447 45.5483C26.4909 44.6866 26.8971 43.9664 27.4634 43.3878C28.0297 42.803 28.7222 42.366 29.5408 42.0767C30.3595 41.7812 31.2643 41.6335 32.2553 41.6335C32.9386 41.6335 33.6187 41.7135 34.2958 41.8736C34.9729 42.0336 35.5915 42.2983 36.1516 42.6676C36.7118 43.0308 37.1611 43.5263 37.4996 44.1541C37.8443 44.782 38.0167 45.5668 38.0167 46.5085V56H34.8036V54.0518H34.6928C34.4897 54.4458 34.2035 54.8151 33.8342 55.1598C33.471 55.4983 33.0124 55.7723 32.4585 55.9815C31.9106 56.1847 31.2674 56.2862 30.5288 56.2862ZM31.3967 53.8303C32.0676 53.8303 32.6493 53.6979 33.1417 53.4332C33.6341 53.1624 34.0127 52.8054 34.2773 52.3622C34.5482 51.919 34.6836 51.4358 34.6836 50.9126V49.2415C34.579 49.3277 34.4005 49.4077 34.1481 49.4815C33.9019 49.5554 33.6249 49.62 33.3171 49.6754C33.0094 49.7308 32.7047 49.7801 32.4031 49.8232C32.1014 49.8662 31.8398 49.9032 31.6183 49.9339C31.1197 50.0017 30.6734 50.1125 30.2795 50.2663C29.8855 50.4202 29.5747 50.6357 29.3469 50.9126C29.1192 51.1835 29.0053 51.5343 29.0053 51.9652C29.0053 52.5807 29.23 53.0455 29.6793 53.3594C30.1287 53.6733 30.7011 53.8303 31.3967 53.8303ZM48.4592 41.8182V44.4034H40.3065V41.8182H48.4592ZM42.3192 38.4205H45.6616V51.7344C45.6616 52.1837 45.7293 52.5284 45.8647 52.7685C46.0063 53.0024 46.1909 53.1624 46.4187 53.2486C46.6464 53.3348 46.8988 53.3778 47.1758 53.3778C47.3851 53.3778 47.5759 53.3625 47.7482 53.3317C47.9267 53.3009 48.0621 53.2732 48.1545 53.2486L48.7177 55.8615C48.5392 55.9231 48.2837 55.9908 47.9513 56.0646C47.6251 56.1385 47.225 56.1816 46.7511 56.1939C45.9139 56.2185 45.1599 56.0923 44.489 55.8153C43.8181 55.5322 43.2856 55.0952 42.8917 54.5043C42.5039 53.9134 42.3131 53.1747 42.3192 52.2884V38.4205ZM57.2882 56.277C55.8725 56.277 54.6568 55.9661 53.6412 55.3445C52.6317 54.7228 51.853 53.8641 51.3052 52.7685C50.7636 51.6667 50.4927 50.3987 50.4927 48.9645C50.4927 47.5241 50.7697 46.2531 51.3237 45.1513C51.8777 44.0433 52.6594 43.1816 53.6689 42.5661C54.6845 41.9444 55.8848 41.6335 57.2697 41.6335C58.4208 41.6335 59.4395 41.8459 60.3258 42.2706C61.2183 42.6892 61.9293 43.2831 62.4586 44.0526C62.988 44.8158 63.2896 45.7083 63.3635 46.7301H60.1689C60.0396 46.0469 59.7318 45.4775 59.2456 45.022C58.7654 44.5604 58.1222 44.3295 57.3159 44.3295C56.6326 44.3295 56.0325 44.5142 55.5154 44.8835C54.9984 45.2467 54.5952 45.7699 54.3059 46.4531C54.0228 47.1364 53.8812 47.955 53.8812 48.9091C53.8812 49.8755 54.0228 50.7064 54.3059 51.402C54.5891 52.0914 54.9861 52.6238 55.497 52.9993C56.014 53.3686 56.6203 53.5533 57.3159 53.5533C57.8083 53.5533 58.2484 53.4609 58.6362 53.2763C59.0301 53.0855 59.3594 52.8116 59.6241 52.4545C59.8888 52.0975 60.0704 51.6636 60.1689 51.1527H63.3635C63.2834 52.156 62.988 53.0455 62.4771 53.821C61.9662 54.5904 61.2707 55.1937 60.3904 55.6307C59.5102 56.0616 58.4761 56.277 57.2882 56.277ZM69.4503 47.6903V56H66.108V37.0909H69.3764V44.228H69.5426C69.875 43.4278 70.389 42.7969 71.0845 42.3352C71.7862 41.8674 72.6787 41.6335 73.7621 41.6335C74.7469 41.6335 75.6056 41.8397 76.3381 42.2521C77.0705 42.6645 77.6368 43.2678 78.0369 44.0618C78.4432 44.8558 78.6463 45.8253 78.6463 46.9702V56H75.304V47.4872C75.304 46.5331 75.0578 45.7914 74.5653 45.2621C74.0791 44.7266 73.3958 44.4588 72.5156 44.4588C71.9247 44.4588 71.3954 44.5881 70.9276 44.8466C70.4659 45.099 70.1027 45.4652 69.8381 45.9453C69.5795 46.4254 69.4503 47.0071 69.4503 47.6903ZM91.18 37.0909L96.1012 51.9744H96.2951L101.207 37.0909H104.974L98.3079 56H94.0792L87.4222 37.0909H91.18ZM107.317 56V41.8182H110.659V56H107.317ZM108.997 39.8054C108.468 39.8054 108.012 39.63 107.631 39.2791C107.249 38.9221 107.058 38.4943 107.058 37.9957C107.058 37.491 107.249 37.0632 107.631 36.7124C108.012 36.3553 108.468 36.1768 108.997 36.1768C109.533 36.1768 109.988 36.3553 110.364 36.7124C110.745 37.0632 110.936 37.491 110.936 37.9957C110.936 38.4943 110.745 38.9221 110.364 39.2791C109.988 39.63 109.533 39.8054 108.997 39.8054ZM119.359 56.2493C118.245 56.2493 117.248 55.9631 116.368 55.3906C115.487 54.8182 114.792 53.9872 114.281 52.8977C113.77 51.8082 113.515 50.4848 113.515 48.9276C113.515 47.3518 113.773 46.0223 114.29 44.9389C114.813 43.8494 115.518 43.0277 116.404 42.4737C117.291 41.9136 118.279 41.6335 119.368 41.6335C120.199 41.6335 120.882 41.7751 121.418 42.0582C121.953 42.3352 122.378 42.6707 122.692 43.0646C123.006 43.4524 123.249 43.8187 123.422 44.1634H123.56V37.0909H126.912V56H123.625V53.7656H123.422C123.249 54.1103 123 54.4766 122.674 54.8643C122.347 55.246 121.917 55.5722 121.381 55.843C120.846 56.1139 120.172 56.2493 119.359 56.2493ZM120.292 53.5071C120.999 53.5071 121.603 53.3163 122.101 52.9347C122.6 52.5469 122.978 52.0083 123.237 51.3189C123.495 50.6295 123.625 49.8262 123.625 48.9091C123.625 47.992 123.495 47.1948 123.237 46.5178C122.984 45.8407 122.609 45.3144 122.11 44.9389C121.618 44.5634 121.012 44.3757 120.292 44.3757C119.547 44.3757 118.925 44.5696 118.426 44.9574C117.928 45.3452 117.552 45.8807 117.3 46.5639C117.048 47.2472 116.922 48.0289 116.922 48.9091C116.922 49.7955 117.048 50.5864 117.3 51.282C117.559 51.9714 117.937 52.5161 118.436 52.9162C118.94 53.3101 119.559 53.5071 120.292 53.5071ZM136.752 56.277C135.33 56.277 134.102 55.9815 133.068 55.3906C132.04 54.7936 131.249 53.9503 130.695 52.8608C130.141 51.7652 129.864 50.4756 129.864 48.9922C129.864 47.5334 130.141 46.2531 130.695 45.1513C131.255 44.0433 132.037 43.1816 133.04 42.5661C134.043 41.9444 135.222 41.6335 136.576 41.6335C137.45 41.6335 138.275 41.7751 139.051 42.0582C139.832 42.3352 140.522 42.7661 141.119 43.3509C141.722 43.9356 142.196 44.6804 142.541 45.5852C142.885 46.4839 143.058 47.5549 143.058 48.7983V49.8232H131.433V47.5703H139.854C139.848 46.9302 139.709 46.3608 139.438 45.8622C139.168 45.3575 138.789 44.9605 138.303 44.6712C137.823 44.3819 137.262 44.2372 136.622 44.2372C135.939 44.2372 135.339 44.4034 134.822 44.7358C134.305 45.062 133.902 45.4929 133.612 46.0284C133.329 46.5578 133.185 47.1394 133.178 47.7734V49.7401C133.178 50.5649 133.329 51.2727 133.631 51.8636C133.932 52.4484 134.354 52.8977 134.896 53.2116C135.437 53.5194 136.071 53.6733 136.798 53.6733C137.284 53.6733 137.724 53.6056 138.118 53.4702C138.512 53.3286 138.854 53.1224 139.143 52.8516C139.432 52.5807 139.651 52.2453 139.798 51.8452L142.919 52.196C142.722 53.0208 142.347 53.741 141.793 54.3565C141.245 54.9659 140.543 55.4399 139.688 55.7784C138.832 56.1108 137.853 56.277 136.752 56.277ZM152.071 56.277C150.686 56.277 149.486 55.9723 148.471 55.3629C147.455 54.7536 146.667 53.901 146.107 52.8054C145.553 51.7098 145.276 50.4295 145.276 48.9645C145.276 47.4995 145.553 46.2161 146.107 45.1143C146.667 44.0125 147.455 43.157 148.471 42.5476C149.486 41.9382 150.686 41.6335 152.071 41.6335C153.456 41.6335 154.657 41.9382 155.672 42.5476C156.688 43.157 157.473 44.0125 158.027 45.1143C158.587 46.2161 158.867 47.4995 158.867 48.9645C158.867 50.4295 158.587 51.7098 158.027 52.8054C157.473 53.901 156.688 54.7536 155.672 55.3629C154.657 55.9723 153.456 56.277 152.071 56.277ZM152.09 53.5994C152.841 53.5994 153.469 53.3932 153.973 52.9808C154.478 52.5623 154.854 52.0021 155.1 51.3004C155.352 50.5987 155.478 49.817 155.478 48.9553C155.478 48.0874 155.352 47.3026 155.1 46.6009C154.854 45.893 154.478 45.3298 153.973 44.9112C153.469 44.4927 152.841 44.2834 152.09 44.2834C151.32 44.2834 150.68 44.4927 150.169 44.9112C149.665 45.3298 149.286 45.893 149.034 46.6009C148.788 47.3026 148.664 48.0874 148.664 48.9553C148.664 49.817 148.788 50.5987 149.034 51.3004C149.286 52.0021 149.665 52.5623 150.169 52.9808C150.68 53.3932 151.32 53.5994 152.09 53.5994Z" fill="#606060"/>
<g filter="url(#filter0_d_82_106)">
<circle cx="220" cy="47" r="40" fill="white"/>
</g>
<path d="M233.5 44.4019C235.5 45.5566 235.5 48.4434 233.5 49.5981L215.5 59.9904C213.5 61.1451 211 59.7017 211 57.3923L211 36.6077C211 34.2983 213.5 32.8549 215.5 34.0096L233.5 44.4019Z" fill="#1E1E1E"/>
<defs>
<filter id="filter0_d_82_106" x="152" y="0" width="148" height="148" filterUnits="userSpaceOnUse" color-interpolation-filters="sRGB">
<feFlood flood-opacity="0" result="BackgroundImageFix"/>
<feColorMatrix in="SourceAlpha" type="matrix" values="0 0 0 0 0 0 0 0 0 0 0 0 0 0 0 0 0 0 127 0" result="hardAlpha"/>
<feOffset dx="6" dy="27"/>
<feGaussianBlur stdDeviation="17"/>
<feComposite in2="hardAlpha" operator="out"/>
<feColorMatrix type="matrix" values="0 0 0 0 0 0 0 0 0 0 0 0 0 0 0 0 0 0 0.1 0"/>
<feBlend mode="normal" in2="BackgroundImageFix" result="effect1_dropShadow_82_106"/>
<feBlend mode="normal" in="SourceGraphic" in2="effect1_dropShadow_82_106" result="shape"/>
</filter>
</defs>
</svg>
